<?xml version="1.0" encoding="UTF-8" standalone="no"?>
<svg
   xmlns:dc="http://purl.org/dc/elements/1.1/"
   xmlns:cc="http://creativecommons.org/ns#"
   xmlns:rdf="http://www.w3.org/1999/02/22-rdf-syntax-ns#"
   xmlns:svg="http://www.w3.org/2000/svg"
   xmlns="http://www.w3.org/2000/svg"
   xmlns:sodipodi="http://sodipodi.sourceforge.net/DTD/sodipodi-0.dtd"
   xmlns:inkscape="http://www.inkscape.org/namespaces/inkscape"
   width="64"
   height="74"
   viewBox="0 0 64 74"
   fill="none"
   id="svg2"
   version="1.1"
   inkscape:version="0.91 r13725"
   sodipodi:docname="Group 3.svg">
  <metadata
     id="metadata26">
    <rdf:RDF>
      <cc:Work
         rdf:about="">
        <dc:format>image/svg+xml</dc:format>
        <dc:type
           rdf:resource="http://purl.org/dc/dcmitype/StillImage" />
      </cc:Work>
    </rdf:RDF>
  </metadata>
  <defs
     id="defs24" />
  <sodipodi:namedview
     pagecolor="#ffffff"
     bordercolor="#666666"
     borderopacity="1"
     objecttolerance="10"
     gridtolerance="10"
     guidetolerance="10"
     inkscape:pageopacity="0"
     inkscape:pageshadow="2"
     inkscape:window-width="1600"
     inkscape:window-height="834"
     id="namedview22"
     showgrid="false"
     inkscape:zoom="4.5101946"
     inkscape:cx="-3.7776677"
     inkscape:cy="33.351435"
     inkscape:window-x="-8"
     inkscape:window-y="-8"
     inkscape:window-maximized="1"
     inkscape:current-layer="svg2" />
  <path
     d="m 10,21.11312 c 1.10457,0 2,-0.8954 2,-2 0,-1.1046 -0.89543,-2 -2,-2 -1.10457,0 -2,0.8954 -2,2 0,1.1046 0.89543,2 2,2 z"
     id="path4"
     inkscape:connector-curvature="0"
     style="fill:#9b9b9b" />
  <path
     d="m 10,20.11312 c 1.10457,0 2,-0.8954 2,-2 0,-1.1046 -0.89543,-2 -2,-2 -1.10457,0 -2,0.8954 -2,2 0,1.1046 0.89543,2 2,2 z"
     id="path6"
     inkscape:connector-curvature="0"
     style="fill:#9b9b9b" />
  <path
     d="m 12,15.11312 c 1.1046,0 2,-0.8954 2,-2 0,-1.1046 -0.8954,-2 -2,-2 -1.10457,0 -2,0.8954 -2,2 0,1.1046 0.89543,2 2,2 z"
     id="path8"
     inkscape:connector-curvature="0"
     style="fill:#9b9b9b" />
  <path
     d="m 6,67.46022 0,-21.3471 c 0,-1.1046 0.89543,-2 2,-2 l 6,0 c 1.1046,0 2,0.8954 2,2 l 0,21.4552 c 0,0.7477 -0.417,1.4329 -1.0812,1.7764 l -2.585,1.3371 c -0.52822,0.2732 -1.15063,0.2972 -1.69831,0.0654 L 7.22053,69.30202 C 6.48069,68.98892 6,68.26352 6,67.46022 Z"
     id="path10"
     inkscape:connector-curvature="0"
     style="fill:#ffc686;fill-opacity:0.8" />
  <path
     d="m 54.0934,37.73872 -18.425,-12.1808 c -0.9214,-0.6091 -1.1746,-1.8499 -0.5654,-2.7713 l 1.6544,-2.5026 1.6545,-2.5025 c 0.6091,-0.9215 1.8499,-1.1746 2.7713,-0.5654 l 18.5297,12.25 c 0.2355,0.1556 0.3644,0.4296 0.3343,0.7103 -0.311,2.9018 -1.8974,5.5147 -4.3284,7.1295 l -0.65,0.4317 c -0.2955,0.1963 -0.6796,0.1967 -0.9754,0.0011 z"
     id="path12"
     inkscape:connector-curvature="0"
     style="fill:#dadada" />
  <path
     d="m 15.9875,21.11312 -9.97502,0 C 3.79997,21.11312 2,23.00182 2,25.32332 c 0,1.7579 1.03214,3.2676 2.49384,3.8972 l 0,23.4256 c 0,0.8801 0.67989,1.5936 1.51864,1.5936 3.25156,0 5.40909,3e-4 5.40909,3e-4 1.6e-4,0 2.3e-4,0 3.1e-4,0 0.83862,0 1.51852,-0.7132 1.51862,-1.5932 2e-4,-0.8801 -0.6796,-1.5936 -1.51832,-1.5938 0,0 -1.50307,-3e-4 -3.89106,-3e-4 l 0,-23.1127 c 0,-0.8801 -0.67997,-1.5935 -1.51864,-1.5935 -0.53775,0 -0.9752,-0.459 -0.9752,-1.0232 0,-0.5642 0.43745,-1.0232 0.9752,-1.0232 l 9.97502,0 c 0.5377,0 0.9752,0.459 0.9752,1.0232 0,0.5642 -0.4375,1.0232 -0.9752,1.0232 l -4.56562,0 c -0.83875,0 -1.51864,0.7134 -1.51864,1.5935 0,0.8801 0.67989,1.5935 1.51864,1.5935 l 3.04702,0 0,36.7526 c 0,2.007 -1.5561,3.6399 -3.4689,3.6399 -1.91281,0 -3.46896,-1.6328 -3.46896,-3.6399 l 0,-8.6075 c 0,-0.8801 -0.67997,-1.5936 -1.51864,-1.5936 -0.83874,0 -1.51864,0.7135 -1.51864,1.5936 l 0,8.6076 c 0,3.7644 2.91868,6.8269 6.50624,6.8269 3.5875,0 6.5062,-3.0625 6.5062,-6.8269 l 0,-37.0668 C 18.9677,28.58992 20,27.08112 20,25.32332 c 0,-2.3216 -1.8,-4.2102 -4.0125,-4.2102 z"
     id="path14"
     inkscape:connector-curvature="0"
     style="fill:#9b9b9b" />
  <path
     d="m 10.5,47.11312 c 0.82843,0 1.5,-0.4477 1.5,-1 0,-0.5523 -0.67157,-1 -1.5,-1 -0.82843,0 -1.5,0.4477 -1.5,1 0,0.5523 0.67157,1 1.5,1 z"
     id="path16"
     inkscape:connector-curvature="0"
     style="fill:#9b9b9b" />
  <path
     d="m 11.5,60.11312 c 0.8284,0 1.5,-0.4477 1.5,-1 0,-0.5523 -0.6716,-1 -1.5,-1 -0.82843,0 -1.5,0.4477 -1.5,1 0,0.5523 0.67157,1 1.5,1 z"
     id="path18"
     inkscape:connector-curvature="0"
     style="fill:#9b9b9b" />
  <path
     d="M 20.3154,2.5767103 14.4917,11.18712 c -1.2917,1.9099 -0.7889,4.5145 1.1209,5.8062 1.4461,0.978 3.2906,0.9271 4.6619,0.0156 l 19.2708,13.034 c 0.724,0.4896 1.7078,0.2997 2.1975,-0.4243 1.8984,-2.8068 3.1583,-4.6689 3.1583,-4.6689 1e-4,-10e-5 2e-4,-2e-4 2e-4,-3e-4 0.4896,-0.7238 0.2998,-1.7076 -0.424,-2.1973 -0.724,-0.4899 -1.7078,-0.3 -2.1976,0.4238 0,0 -0.8778,1.2973 -2.272,3.3586 L 20.9944,13.67472 c -0.724,-0.4897 -1.7079,-0.2997 -2.1975,0.4243 -0.314,0.4641 -0.947,0.5863 -1.4111,0.2724 -0.4641,-0.3139 -0.5863,-0.9469 -0.2724,-1.4111 l 5.8238,-8.6103997 c 0.3139,-0.46412 0.9469,-0.58639 1.411,-0.27248 0.4642,0.31391 0.5863,0.94697 0.2724,1.41109 L 21.955,9.42962 c -0.4896,0.724 -0.2997,1.7078 0.4243,2.1975 0.724,0.4897 1.7078,0.2997 2.1975,-0.4243 l 1.779,-2.63014 30.234,20.44894 c 1.651,1.1167 2.0857,3.3684 0.969,5.0196 -1.1168,1.6511 -3.3685,2.0859 -5.0196,0.9692 l -7.0809,-4.7892 c -0.7239,-0.4897 -1.7078,-0.2997 -2.1975,0.4242 -0.4897,0.724 -0.2996,1.7079 0.4243,2.1975 l 7.081,4.7893 c 3.0967,2.0945 7.32,1.279 9.4145,-1.8177 2.0945,-3.0967 1.2792,-7.3201 -1.8175,-9.4146 L 27.8706,5.7761503 c 0.3355,-1.61187 -0.3031,-3.34245 -1.749,-4.32044 -1.9099,-1.29173 -4.5144,-0.78883 -5.8062,1.121 z"
     id="path20"
     inkscape:connector-curvature="0"
     style="fill:#9b9b9b" />
</svg>
