<svg width="52" height="59" viewBox="0 0 52 59" fill="none" xmlns="http://www.w3.org/2000/svg">
<path d="M48.3124 29.4109C46.9559 24.3198 44.3513 20.211 43.1646 18.7338C40.7963 15.8067 41.3946 13.2513 42.1799 11.9169C42.9652 10.5826 45.9589 9.11533 46.2395 7.86716C46.5202 6.619 39.3807 1.95869 38.3345 2.6677C37.2882 3.37672 37.4408 7.37233 36.493 8.49494C32.2266 13.5491 29.1689 10.9814 22.4874 11.8234C15.8059 12.6653 10.0944 15.3635 5.79844 21.8579C1.63297 28.1579 1.61327 35.2653 3.49414 41.1417C5.17805 46.3954 9.03087 51.0261 14.3411 54.0936C17.6326 55.9553 21.355 56.9205 25.1364 56.8927C33.7406 56.8927 41.8918 52.4737 46.4094 45.4057C49.2947 40.8906 49.9348 35.4942 48.3124 29.4109Z" fill="#191919"/>
<path d="M25.1389 58.8623C21.0107 58.8904 16.9475 57.8334 13.3564 55.7972C7.63499 52.4934 3.46705 47.5007 1.61819 41.7424C0.237082 37.444 -1.27204 28.9777 4.15637 20.7723C8.40309 14.3517 14.1515 10.8854 22.2412 9.87113C24.1502 9.65294 26.0749 9.6068 27.9922 9.73327C31.2098 9.87113 32.6869 9.9376 34.9617 7.2714C35.1266 6.9489 35.3039 5.90999 35.4122 5.28468C35.7126 3.53429 35.9957 1.87992 37.2438 1.04042C38.4083 0.260009 39.8362 0.740073 41.077 1.31615C42.2141 1.85959 43.3058 2.49351 44.3414 3.21179C46.5792 4.74553 48.593 6.41221 48.1696 8.31031C47.8643 9.66926 46.6482 10.6097 45.3852 11.5944C44.8929 11.981 44.0558 12.6284 43.8835 12.9189C43.5167 13.5368 42.8594 15.2183 44.6959 17.4881C46.0696 19.1844 48.7752 23.4951 50.2154 28.894C51.988 35.541 51.2666 41.4495 48.0711 46.4569C43.1843 54.1133 34.3979 58.8623 25.1389 58.8623ZM25.6312 13.6058C24.6668 13.6023 23.7031 13.6599 22.7459 13.7781C15.8749 14.6398 11.0077 17.5546 7.44296 22.9436C2.92298 29.7778 4.20315 36.9024 5.37007 40.5386C6.91612 45.3638 10.4538 49.5712 15.3259 52.3851C18.3181 54.0759 21.702 54.9512 25.1389 54.9233C33.0685 54.9233 40.5846 50.871 44.7525 44.3372C47.3301 40.3047 47.8865 35.4524 46.4094 29.9107C45.0923 24.9648 42.5147 21.048 41.6334 19.9672C38.14 15.6565 39.883 11.944 40.4935 10.91C41.045 9.98438 42.0174 9.22859 42.9554 8.49495C43.2016 8.298 43.5561 8.02719 43.849 7.77855C42.5077 6.65404 41.0415 5.68756 39.4792 4.89816C39.4054 5.25513 39.3389 5.63672 39.2897 5.94199C39.0435 7.41911 38.7973 8.82484 37.9996 9.76773C34.4545 13.9529 31.2295 13.815 27.8174 13.6673C27.1354 13.6353 26.4018 13.6058 25.6189 13.6058H25.6312Z" fill="#191919"/>
<path d="M48.3124 29.4109C46.9559 24.3198 44.3513 20.211 43.1646 18.7338C40.7963 15.8067 41.3946 13.2513 42.1799 11.9169C42.9652 10.5826 45.9589 9.11533 46.2395 7.86716C46.5202 6.619 39.3807 1.95869 38.3345 2.6677C37.2882 3.37672 37.4408 7.37233 36.493 8.49494C32.2266 13.5491 29.1689 10.9814 22.4874 11.8234C15.8059 12.6653 10.0944 15.3635 5.79844 21.8579C1.63297 28.1579 1.61327 35.2653 3.49414 41.1417C5.17805 46.3954 9.03087 51.0261 14.3411 54.0936C17.6326 55.9553 21.355 56.9205 25.1364 56.8927C33.7406 56.8927 41.8918 52.4737 46.4094 45.4057C49.2947 40.8906 49.9348 35.4942 48.3124 29.4109Z" fill="white"/>
<path d="M8.88038 38.4433C10.1802 38.6329 12.327 37.3429 13.393 37.2838C14.459 37.2247 17.0168 38.2686 18.1124 38.2686C19.2079 38.2686 21.3842 37.306 22.1129 37.2986C22.8416 37.2912 24.789 37.7737 25.9953 37.7737C27.2016 37.7737 28.6295 37.2813 29.8259 37.2961C31.0224 37.3109 32.3543 38.3129 33.888 38.3006C35.4218 38.2883 36.4114 37.4438 38.179 37.3995C39.9467 37.3552 41.5518 38.1972 42.8 38.5172C44.0481 38.8372 46.1949 39.2927 46.0373 32.7294C45.8798 26.166 38.957 14.7577 25.818 15.0039C12.3147 15.2723 6 27.8056 6 32.6629C6 37.5201 7.57806 38.2538 8.88038 38.4433Z" fill="#DADADA" fill-opacity="0.5"/>
<path d="M43.1597 29.9994C41.8598 29.8098 39.7131 31.0999 38.6471 31.1589C37.5811 31.218 35.0232 30.1742 33.9277 30.1742C32.8322 30.1742 30.6559 31.1368 29.9272 31.1442C29.1984 31.1516 27.2511 30.669 26.0448 30.669C24.8385 30.669 23.4106 31.1614 22.2141 31.1466C21.0177 31.1319 19.6858 30.1299 18.1521 30.1422C16.6183 30.1545 15.6286 30.9989 13.861 31.0432C12.0934 31.0875 10.4883 30.2456 9.2401 29.9255C7.99194 29.6055 5.84519 29.1501 6.00275 35.7134C6.16031 42.2767 13.0831 53.685 26.2221 53.4388C39.7254 53.1705 46.0401 40.6371 46.0401 35.7799C46.0401 30.9226 44.462 30.189 43.1597 29.9994Z" fill="#FF931E"/>
<g opacity="0.2">
<path opacity="0.2" d="M34.0089 33.345C33.3688 32.38 31.5027 30.7576 31.5027 30.7576C30.9816 30.9202 30.4468 31.0355 29.905 31.1023C29.2206 31.1589 27.0665 30.6271 26.0374 30.6099C25.0083 30.5927 22.6893 31.2106 22.0196 31.1171C21.4065 30.9991 20.8032 30.8345 20.2151 30.6247L18.637 37.9118C18.4081 38.7931 19.2968 39.5686 20.8109 39.2609C22.3249 38.9532 33.5067 35.2751 33.5067 35.2751C34.3388 35.0216 34.649 34.3076 34.0089 33.345Z" fill="#191919"/>
</g>
<path d="M16.8965 23.6871C16.6222 23.3304 16.2304 23.0823 15.7906 22.9867C15.3508 22.8912 14.8914 22.9544 14.4938 23.1652C13.6937 23.6034 13.509 24.6152 14.0974 25.4153C14.6858 26.2154 15.7592 26.4542 16.5002 25.9471C16.677 25.8267 16.8279 25.6721 16.9439 25.4924C17.0599 25.3126 17.1388 25.1115 17.1757 24.9008C17.2127 24.6901 17.207 24.4741 17.1591 24.2657C17.1111 24.0572 17.0218 23.8605 16.8965 23.6871Z" fill="#FF931E"/>
<path d="M39.5088 24.7088C39.3161 24.4564 39.0404 24.2804 38.7303 24.2119C38.4203 24.1434 38.0961 24.1869 37.815 24.3346C37.2513 24.6423 37.1257 25.3587 37.5368 25.9225C37.7172 26.1903 37.9936 26.3785 38.3089 26.4482C38.6242 26.5178 38.9542 26.4636 39.2306 26.2967C39.3544 26.2118 39.4601 26.103 39.5413 25.9767C39.6226 25.8504 39.6778 25.7091 39.7037 25.5612C39.7296 25.4133 39.7257 25.2617 39.6923 25.1153C39.6588 24.9689 39.5964 24.8307 39.5088 24.7088Z" fill="#FF931E"/>
<path d="M24.8435 47.9955C24.6351 47.8072 24.3668 47.6986 24.086 47.6892C23.8053 47.6797 23.5303 47.7699 23.3097 47.9438C23.2062 48.032 23.1233 48.1419 23.0669 48.2656C23.0106 48.3894 22.9821 48.524 22.9835 48.66C22.9849 48.796 23.0162 48.93 23.0751 49.0526C23.134 49.1751 23.2192 49.2832 23.3245 49.3693C23.5246 49.5731 23.7955 49.6922 24.081 49.7018C24.3665 49.7114 24.6448 49.6109 24.8582 49.421C24.9522 49.3271 25.0265 49.2155 25.0767 49.0926C25.1269 48.9696 25.152 48.8379 25.1507 48.7051C25.1493 48.5724 25.1214 48.4412 25.0687 48.3194C25.0159 48.1975 24.9393 48.0874 24.8435 47.9955Z" fill="white"/>
<path d="M29.1246 43.5494C28.5345 43.5972 27.9804 43.8523 27.5604 44.2696C27.1404 44.6869 26.8817 45.2393 26.8302 45.8291C26.7465 47.0231 27.7411 47.9389 29.0459 47.8651C30.3506 47.7912 31.3772 46.7646 31.3403 45.5854C31.3319 45.3051 31.2674 45.0294 31.1508 44.7744C31.0342 44.5194 30.8678 44.2904 30.6614 44.1007C30.4549 43.9109 30.2126 43.7645 29.9487 43.6698C29.6848 43.5751 29.4046 43.5342 29.1246 43.5494Z" fill="white"/>
<path d="M11.4435 33.3031C11.1081 33.2914 10.7738 33.348 10.4608 33.4693C10.1479 33.5907 9.86283 33.7744 9.62296 34.0091C9.3831 34.2439 9.19342 34.525 9.06541 34.8353C8.93741 35.1456 8.87374 35.4786 8.87828 35.8142C8.90413 36.5183 9.19968 37.1854 9.70377 37.6776C10.2079 38.1698 10.8819 38.4493 11.5863 38.4583H11.9162C13.3933 38.4903 14.4741 37.3578 14.3165 35.9423C14.2168 35.2379 13.876 34.59 13.3522 34.1087C12.8283 33.6275 12.1538 33.3428 11.4435 33.3031Z" fill="white"/>
<path d="M40.3581 0.136904C39.3734 1.10442 39.4398 3.64014 38.8219 5.60471C38.204 7.56928 41.5521 9.73079 42.7092 8.96515C43.8663 8.19951 46.9313 5.97645 47.5911 4.77998C48.2509 3.58352 41.333 -0.828147 40.3581 0.136904Z" fill="#0D0C0C"/>
</svg>
