<?xml version="1.0" encoding="UTF-8" standalone="no"?>
<!-- Created with Inkscape (http://www.inkscape.org/) -->

<svg
   xmlns:dc="http://purl.org/dc/elements/1.1/"
   xmlns:cc="http://creativecommons.org/ns#"
   xmlns:rdf="http://www.w3.org/1999/02/22-rdf-syntax-ns#"
   xmlns:svg="http://www.w3.org/2000/svg"
   xmlns="http://www.w3.org/2000/svg"
   xmlns:sodipodi="http://sodipodi.sourceforge.net/DTD/sodipodi-0.dtd"
   xmlns:inkscape="http://www.inkscape.org/namespaces/inkscape"
   width="210mm"
   height="297mm"
   viewBox="0 0 744.09448819 1052.3622047"
   id="svg2"
   version="1.1"
   inkscape:version="0.92.3 (2405546, 2018-03-11)"
   sodipodi:docname="SELO.svg">
  <defs
     id="defs4">
    <inkscape:path-effect
       effect="skeletal"
       id="path-effect4297"
       is_visible="true"
       pattern="m -64.649763,-13.182746 c 0,-2.76 2.24,-5 5,-5 2.76,0 5,2.24 5,5 0,2.76 -2.24,5.0000002 -5,5.0000002 -2.76,0 -5,-2.2400002 -5,-5.0000002 z"
       copytype="single_stretched"
       prop_scale="1"
       scale_y_rel="false"
       spacing="0"
       normal_offset="0"
       tang_offset="0"
       prop_units="false"
       vertical_pattern="false"
       fuse_tolerance="0" />
    <inkscape:path-effect
       effect="spiro"
       id="path-effect4295"
       is_visible="true" />
    <inkscape:path-effect
       effect="skeletal"
       id="path-effect4253"
       is_visible="true"
       pattern="M 0,5 C 0,2.24 2.24,0 5,0 7.76,0 10,2.24 10,5 10,7.76 7.76,10 5,10 2.24,10 0,7.76 0,5 Z"
       copytype="single_stretched"
       prop_scale="1"
       scale_y_rel="false"
       spacing="0"
       normal_offset="0"
       tang_offset="0"
       prop_units="false"
       vertical_pattern="false"
       fuse_tolerance="0" />
    <inkscape:path-effect
       effect="spiro"
       id="path-effect4251"
       is_visible="true" />
    <inkscape:path-effect
       effect="skeletal"
       id="path-effect4245"
       is_visible="true"
       pattern="m -85.862966,60.55839 c 0,-2.76 2.24,-5 5,-5 2.76,0 5,2.24 5,5 0,2.76 -2.24,5 -5,5 -2.76,0 -5,-2.24 -5,-5 z"
       copytype="single_stretched"
       prop_scale="1"
       scale_y_rel="false"
       spacing="0"
       normal_offset="0"
       tang_offset="0"
       prop_units="false"
       vertical_pattern="false"
       fuse_tolerance="0" />
    <inkscape:path-effect
       effect="spiro"
       id="path-effect4243"
       is_visible="true" />
    <inkscape:path-effect
       effect="skeletal"
       id="path-effect4239"
       is_visible="true"
       pattern="M 0,5 C 0,2.24 2.24,0 5,0 7.76,0 10,2.24 10,5 10,7.76 7.76,10 5,10 2.24,10 0,7.76 0,5 Z"
       copytype="single_stretched"
       prop_scale="1"
       scale_y_rel="false"
       spacing="0"
       normal_offset="0"
       tang_offset="0"
       prop_units="false"
       vertical_pattern="false"
       fuse_tolerance="0" />
    <inkscape:path-effect
       effect="spiro"
       id="path-effect4237"
       is_visible="true" />
    <inkscape:path-effect
       effect="skeletal"
       id="path-effect4227"
       is_visible="true"
       pattern="m -198.57143,-0.71428572 c 0,-2.75999998 2.24,-4.99999998 5,-4.99999998 2.76,0 5,2.24 5,4.99999998 0,2.76000002 -2.24,5.00000002 -5,5.00000002 -2.76,0 -5,-2.24 -5,-5.00000002 z"
       copytype="single_stretched"
       prop_scale="1"
       scale_y_rel="false"
       spacing="0"
       normal_offset="0"
       tang_offset="0"
       prop_units="false"
       vertical_pattern="false"
       fuse_tolerance="0" />
    <inkscape:path-effect
       effect="spiro"
       id="path-effect4225"
       is_visible="true" />
    <filter
       style="color-interpolation-filters:sRGB;"
       inkscape:label="Lightness-Contrast"
       id="filter5691">
      <feColorMatrix
         values="1.03 0 0 -0.01015 -0.015 0 1.03 0 -0.01015 -0.015 0 0 1.03 -0.01015 -0.015 0 0 0 1 0"
         id="feColorMatrix5693" />
    </filter>
  </defs>
  <sodipodi:namedview
     id="base"
     pagecolor="#ffffff"
     bordercolor="#666666"
     borderopacity="1.0"
     inkscape:pageopacity="0.0"
     inkscape:pageshadow="2"
     inkscape:zoom="0.1767767"
     inkscape:cx="148.73247"
     inkscape:cy="309.11427"
     inkscape:document-units="px"
     inkscape:current-layer="layer1"
     showgrid="false"
     inkscape:window-width="1366"
     inkscape:window-height="705"
     inkscape:window-x="-8"
     inkscape:window-y="-8"
     inkscape:window-maximized="1"
     inkscape:object-paths="true" />
  <metadata
     id="metadata7">
    <rdf:RDF>
      <cc:Work
         rdf:about="">
        <dc:format>image/svg+xml</dc:format>
        <dc:type
           rdf:resource="http://purl.org/dc/dcmitype/StillImage" />
      </cc:Work>
    </rdf:RDF>
  </metadata>
  <g
     inkscape:label="Camada 1"
     inkscape:groupmode="layer"
     id="layer1">
    <circle
       style="fill:none;fill-rule:evenodd;stroke:#a4a4a4;stroke-width:17;stroke-linecap:butt;stroke-linejoin:miter;stroke-miterlimit:4;stroke-dasharray:none;stroke-opacity:1"
       id="path3360"
       cx="372.04724"
       cy="526.18109"
       r="327.88016"
       inkscape:export-filename="C:\Users\leila\OneDrive\Área de Trabalho\SeloQualidadeMapGas.png"
       inkscape:export-xdpi="1200"
       inkscape:export-ydpi="1200" />
    <circle
       style="fill:none;stroke:#a4a4a4;stroke-width:10.2794714;stroke-miterlimit:4;stroke-dasharray:none;stroke-opacity:1"
       id="path4162"
       cx="372.04724"
       cy="526.18109"
       r="307.50519"
       inkscape:export-filename="C:\Users\leila\OneDrive\Área de Trabalho\SeloQualidadeMapGas.png"
       inkscape:export-xdpi="1200"
       inkscape:export-ydpi="1200" />
    <circle
       style="fill:none;fill-rule:evenodd;stroke:#a4a4a4;stroke-width:9.59449387;stroke-linecap:butt;stroke-linejoin:miter;stroke-miterlimit:4;stroke-dasharray:none;stroke-opacity:1"
       id="path3360-1"
       cx="372.04724"
       cy="526.18109"
       r="162.5081"
       inkscape:export-filename="C:\Users\leila\OneDrive\Área de Trabalho\SeloQualidadeMapGas.png"
       inkscape:export-xdpi="1200"
       inkscape:export-ydpi="1200" />
    <circle
       style="fill:#a4a4a4;fill-opacity:1;fill-rule:evenodd;stroke:none;stroke-width:7.85200024;stroke-linecap:butt;stroke-linejoin:miter;stroke-miterlimit:4;stroke-dasharray:none;stroke-opacity:1"
       id="path3360-1-1"
       cx="372.04724"
       cy="526.18109"
       r="151.12241"
       inkscape:export-filename="C:\Users\leila\OneDrive\Área de Trabalho\SeloQualidadeMapGas.png"
       inkscape:export-xdpi="1200"
       inkscape:export-ydpi="1200" />
    <g
       id="g4178"
       transform="translate(0.73644012,2.423717)"
       style="filter:url(#filter5691)"
       inkscape:export-filename="C:\Users\leila\OneDrive\Área de Trabalho\SeloQualidadeMapGas.png"
       inkscape:export-xdpi="1200"
       inkscape:export-ydpi="1200">
      <path
         sodipodi:nodetypes="ccccc"
         inkscape:connector-curvature="0"
         id="path3352-0"
         d="m 316.96155,474.26391 64.0621,106.82261 15.70614,0.28385 -63.72039,-103.5533 z"
         style="fill:#f2f2f2;fill-rule:evenodd;stroke:none;stroke-width:1px;stroke-linecap:butt;stroke-linejoin:miter;stroke-opacity:1" />
      <path
         sodipodi:nodetypes="ccccc"
         inkscape:connector-curvature="0"
         id="path3352-7-3"
         d="m 409.76186,535.49452 -23.96377,28.66878 -6.03877,-10.04524 21.57977,-25.89472 z"
         style="fill:#f2f2f2;fill-rule:evenodd;stroke:none;stroke-width:1px;stroke-linecap:butt;stroke-linejoin:miter;stroke-opacity:1" />
      <path
         sodipodi:nodetypes="cccccsscsssssssccccsssccccsscscccc"
         inkscape:connector-curvature="0"
         id="path3349-4"
         d="m 299.49614,595.26955 c -8.8225,-1.49529 -16.59087,-2.83853 -17.26306,-2.98505 l -1.85605,-0.22672 c 0.46488,-3.10319 1.03782,-5.80254 1.38397,-8.24973 1.2934,-9.05476 20.00811,-123.53721 20.22546,-123.72418 0.0587,-0.0505 9.52509,2.21944 21.03635,5.04437 11.51126,2.82492 22.58137,5.50696 24.60026,5.96009 l 3.6707,0.82387 5.49553,-2.2223 c 7.94091,-3.21117 12.73655,-5.10662 13.46374,-5.32145 0.58235,-0.17206 0.68956,0.049 1.28849,2.65636 0.35931,1.56422 0.74303,3.60734 0.85266,4.54028 0.19336,1.64517 0.17062,1.71673 -0.7554,2.37611 -1.86508,1.32807 -12.91092,6.26833 -17.58614,7.86544 -2.4653,0.84218 -2.87663,0.81521 -7.96149,-0.52208 -6.03168,-1.5863 -31.33979,-7.50597 -34.9429,-8.14728 -0.8812,4.15588 -2.2161,10.93249 -2.76119,14.4254 -4.08567,26.25927 -13.34515,91.84528 -13.73734,95.27449 9.80593,2.92852 33.25681,7.18635 46.36247,9.18732 3.34829,0.49266 4.36931,0.33895 10.82534,-1.62973 4.27026,-1.30215 21.89829,-7.18928 38.3964,-12.82302 5.45722,-1.86354 10.39591,-3.38823 10.97488,-3.38823 0.57894,0 8.41959,1.29992 17.42368,2.88874 9.58137,1.77967 20.2188,3.44126 29.35651,5.04005 -2.04021,-28.46934 -4.30109,-43.48759 -7.03201,-65.21769 -2.90957,-23.10678 -3.01678,-24.16623 -2.51041,-24.80484 0.29094,-0.3669 1.46774,-1.81059 2.61511,-3.20818 1.14737,-1.39759 2.78582,-3.60667 3.64099,-4.90906 0.8552,-1.30237 1.60194,-2.32092 1.65941,-2.26342 0.12306,0.12304 1.43894,8.84414 4.20256,27.85251 5.75632,39.59239 12.05011,86.45737 11.6629,86.84457 -19.90708,-3.56334 -39.95698,-7.82634 -60.22244,-11.45742 0,0 -38.97647,11.82178 -59.41555,18.09946 -11.90402,-2.16422 -30.74522,-5.68146 -43.09343,-7.77868 z"
         style="fill:#f0f0f0;fill-opacity:1" />
      <path
         sodipodi:nodetypes="cccccc"
         inkscape:connector-curvature="0"
         id="path4215-5"
         d="m 344.0752,592.48261 c -13.33835,-0.90831 -50.03794,-9.54222 -50.03794,-9.54222 6.06428,-42.97117 8.33668,-58.34571 16.79757,-109.87089 0.89583,0.12831 6.21667,1.34133 6.21667,1.34133 l 63.94295,106.45859 c -13.47905,5.22985 -30.72907,10.20728 -36.91925,11.61319 z"
         style="fill:#cecece;fill-opacity:1;stroke:none" />
      <path
         sodipodi:nodetypes="sccccss"
         inkscape:connector-curvature="0"
         id="path4219-5"
         d="m 356.43052,516.07594 c -12.76323,-20.73863 -22.16758,-36.01952 -23.23378,-37.92714 6.7147,1.36422 11.8403,2.60727 17.39799,3.90718 6.8026,-1.97286 12.96313,-4.58391 19.07105,-7.13297 0,0 20.59336,39.05633 31.67826,53.38323 -0.20017,0.58643 -21.22315,25.69817 -21.51359,25.69817 -0.15249,0 -10.63668,-17.18984 -23.39993,-37.92847 z"
         style="fill:#cecece;fill-opacity:1;stroke:none" />
      <path
         sodipodi:nodetypes="ssscscsccsscs"
         inkscape:connector-curvature="0"
         id="path4227-0"
         d="m 438.57554,580.5852 c -4.62226,-0.79073 -12.38768,-2.13607 -17.25649,-2.98967 -4.86877,-0.8536 -11.39524,-1.97461 -14.50319,-2.49115 l -5.57241,-0.90971 -3.83699,1.10634 c -2.07502,0.59831 -3.70387,1.15672 -3.72085,1.13441 -0.0169,-0.0223 -1.83781,-2.86692 -3.92183,-6.29824 l -3.87784,-6.38484 c 14.44562,-16.77093 36.71875,-44.18225 52.78169,-65.28563 0.12578,0.41536 5.95063,47.07345 6.505,52.11626 1.03523,9.41662 1.69073,16.40396 2.48067,26.44278 0.42463,5.39654 0.43634,5.0495 -0.16937,5.02091 -0.27735,-0.0132 -4.2861,-0.67074 -8.90839,-1.46146 z"
         style="fill:#cdcdcd;fill-opacity:1;stroke:none" />
      <path
         sodipodi:nodetypes="ccccc"
         inkscape:connector-curvature="0"
         id="path4288"
         d="m 351.29704,471.91035 -8.70239,131.13988 59.40979,-18.10114 0.43298,-133.5166 z"
         style="fill:#000000;fill-opacity:0.19607843;fill-rule:evenodd;stroke:none;stroke-width:1px;stroke-linecap:butt;stroke-linejoin:miter;stroke-opacity:1" />
      <ellipse
         ry="32.206684"
         rx="32.341064"
         cy="461.90643"
         cx="407.86826"
         id="path4290"
         style="fill:#ffffff;fill-opacity:1;stroke:none" />
      <path
         sodipodi:nodetypes="sssssssssss"
         inkscape:connector-curvature="0"
         id="path3576-1"
         d="m 403.98502,481.71641 c -2.03479,-0.44944 -4.09702,-1.33605 -5.91632,-2.54355 -1.24642,-0.82729 -3.19896,-2.75171 -4.03266,-3.97465 -2.59699,-3.80935 -3.49989,-8.60454 -2.29935,-12.21184 1.19918,-3.60327 4.6226,-9.26445 8.63433,-14.2783 2.81412,-3.51711 6.46771,-7.62014 6.67262,-7.49348 0.19859,0.12274 3.15699,3.48804 4.82729,5.49128 4.10963,4.92874 6.97094,9.15072 8.98419,13.25657 1.25358,2.55649 1.71165,4.03646 1.794,5.79618 0.34753,7.42343 -5.31744,14.53092 -12.62828,15.84397 -1.621,0.29114 -4.94895,0.3539 -6.03582,0.11382 z"
         style="fill:#838383;fill-opacity:1" />
      <path
         sodipodi:nodetypes="cssasssaassssssscssscssssssss"
         inkscape:connector-curvature="0"
         id="path3519-1"
         d="m 405.89423,535.75111 c -8.6105,-8.52956 -21.08304,-24.06428 -28.33686,-35.29399 -4.3289,-6.7016 -9.18956,-15.7974 -11.25495,-21.06145 -3.08893,-7.87277 -3.86957,-12.18057 -3.7789,-18.46126 0.0953,-6.60278 1.12909,-12.22399 4.53126,-19.28522 2.07685,-4.31048 4.26103,-7.45759 7.6116,-10.96735 5.7365,-6.00895 11.30945,-9.52358 19.45395,-12.2688 1.60042,-0.53945 2.82297,-0.98245 4.29446,-1.17666 6.31491,-0.83343 12.88182,-1.24526 19.10882,0.0954 5.91965,1.27445 12.02292,4.11864 16.59352,7.39269 10.07846,7.21945 16.71325,18.10646 18.68429,30.65884 0.37677,2.39962 0.42776,7.414 0.1021,10.03955 -1.31289,10.58365 -6.20311,21.81712 -15.78395,36.25776 -2.66222,4.01263 -8.79132,12.31045 -12.19941,16.51604 -0.96973,1.19667 -2.15984,2.66532 -2.64473,3.26365 -6.19668,7.64691 -13.73923,16.02157 -14.42967,16.02157 -0.1124,0 -0.99058,-0.77886 -1.95153,-1.73073 z m 4.51575,-42.18962 c 7.60292,-0.76911 14.02133,-3.57102 19.02256,-8.30415 4.48596,-4.24554 7.34535,-8.9898 9.04658,-15.0101 0.89648,-3.17248 1.20942,-5.3491 1.21104,-8.42276 0.004,-4.96464 -1.11096,-9.63248 -3.39738,-14.24138 -1.59304,-3.21121 -3.24836,-5.50484 -5.9338,-8.22201 -5.27559,-5.33792 -10.40411,-7.99038 -17.40612,-9.00244 -3.07324,-0.44419 -9.51053,-0.29072 -12.23034,0.2916 -6.01633,1.28809 -10.45463,3.75452 -15.16528,8.42758 -3.39673,3.36961 -5.66426,6.69996 -7.39903,10.86711 -3.96442,9.52294 -2.89625,20.32151 2.89619,29.27901 6.40675,9.90746 17.85846,15.50058 29.35558,14.33754 z"
         style="fill:#8e8e8e;fill-opacity:1" />
      <path
         sodipodi:nodetypes="cczczcc"
         inkscape:connector-curvature="0"
         id="path4378-9"
         d="m 405.69201,442.49649 c 0,0 0.51141,-0.59194 1.32322,-1.31234 2.88596,2.50739 15.9804,15.57268 15.69453,25.08799 -0.28588,9.51532 -8.0007,15.95692 -16.23116,15.58396 4.63409,-2.58702 10.26119,-7.73577 10.41837,-15.0154 0.15713,-7.27964 -12.17956,-23.30173 -12.17956,-23.30173 z"
         style="fill:#727272;fill-opacity:1;fill-rule:evenodd;stroke:none;stroke-width:1px;stroke-linecap:butt;stroke-linejoin:miter;stroke-opacity:1" />
    </g>
    <g
       id="g1905"
       transform="translate(5.5254053)"
       style="fill:#999999"
       inkscape:export-filename="C:\Users\leila\OneDrive\Área de Trabalho\SeloQualidadeMapGas.png"
       inkscape:export-xdpi="1200"
       inkscape:export-ydpi="1200">
      <path
         id="path947"
         d="m 145.2677,402.06537 c -1.96042,2.73792 -3.10942,5.64339 -3.44577,8.7164 -0.33699,3.07302 0.15185,6.02616 1.46528,8.86072 1.31341,2.83456 3.3397,5.23172 6.07763,7.19275 2.73791,1.96104 5.65969,3.10691 8.76658,3.43825 3.10628,0.33071 6.05945,-0.15751 8.86074,-1.46591 2.80066,-1.30777 5.18151,-3.33094 7.14254,-6.06885 1.96042,-2.73791 3.10941,-5.64339 3.44576,-8.71639 0.33699,-3.07239 -0.15185,-6.02618 -1.46528,-8.86074 -1.31342,-2.83455 -3.33971,-5.23171 -6.07762,-7.19274 -2.73791,-1.96104 -5.66032,-3.1069 -8.76661,-3.43761 -3.10625,-0.33133 -6.05942,0.15751 -8.86072,1.46528 -2.80065,1.30778 -5.1815,3.33093 -7.14253,6.06884 z m -6.68824,-4.78993 c 2.99709,-4.185 6.60979,-7.30822 10.83746,-9.36966 4.2283,-2.06143 8.6323,-2.90169 13.21201,-2.5214 4.58036,0.38028 8.88458,2.01311 12.91332,4.89849 3.24621,2.325 5.78647,5.12064 7.61947,8.38631 1.83302,3.26567 2.89166,6.74533 3.17467,10.43959 0.28365,3.69427 -0.23657,7.37536 -1.56128,11.04266 2.02504,-0.26607 3.70304,-0.75054 5.03529,-1.45337 1.33163,-0.70346 2.44612,-1.68052 3.34223,-2.93245 1.93279,-2.699 2.51891,-5.82974 1.75708,-9.39349 l 6.74533,-0.49512 c 0.62314,2.51764 0.69404,4.98008 0.21336,7.38729 -0.48132,2.40657 -1.49226,4.68576 -3.03286,6.83756 -2.01688,2.81573 -4.50127,4.94243 -7.45379,6.37884 -2.95192,1.43641 -7.07101,2.54024 -12.35671,3.31085 -3.03033,3.57001 -6.57212,6.1818 -10.62659,7.83471 -4.05385,1.65355 -8.21813,2.22146 -12.4935,1.70438 -4.27473,-0.51708 -8.28966,-2.1198 -12.04481,-4.8094 -3.98983,-2.85715 -6.91161,-6.39956 -8.76597,-10.62722 -1.85436,-4.22767 -2.48627,-8.67434 -1.8964,-13.34129 0.59052,-4.66632 2.38399,-9.09228 5.38169,-13.27728 z"
         style="fill:#999999;fill-rule:evenodd;stroke-width:0.93750006"
         inkscape:connector-curvature="0" />
      <text
         id="text949"
         y="432.73773"
         x="132.98442"
         font-size="86.4022"
         style="font-size:54.21998215px;font-family:Arial, Arial_MSFontService, sans-serif;fill:#999999;fill-opacity:0;stroke-width:0.93750006">Q</text>
      <path
         id="path951"
         d="m 171.12443,356.8192 6.95994,-6.29099 18.8736,20.87856 c 6.64617,7.35213 13.14551,8.15663 19.49799,2.41348 6.31735,-5.71052 6.15294,-12.24186 -0.49325,-19.59338 l -18.87358,-20.87856 6.852,-6.19434 19.11582,21.14588 c 4.90415,5.42501 7.23417,10.89015 6.99069,16.3961 -0.24412,5.50596 -2.95315,10.59773 -8.12777,15.27596 -5.17524,4.67825 -10.52305,6.86959 -16.04343,6.57401 -5.51977,-0.29556 -10.73202,-3.15584 -15.63618,-8.58022 z"
         style="fill:#999999;fill-rule:evenodd;stroke-width:0.93750006"
         inkscape:connector-curvature="0" />
      <text
         id="text953"
         y="379.14478"
         x="171.12447"
         font-size="94.6861"
         style="font-size:59.41837692px;font-family:Arial, Arial_MSFontService, sans-serif;fill:#999999;fill-opacity:0;stroke-width:0.93750006">U</text>
      <path
         id="path955"
         d="m 249.81798,308.08898 2.10286,23.92898 16.72743,-8.96867 z m -8.44029,-6.11968 8.14095,-4.36511 43.96853,33.74482 -8.64925,4.63744 -9.97646,-7.91629 -22.26039,11.93563 1.13584,12.65665 -8.52249,4.56905 z"
         style="fill:#999999;fill-rule:evenodd;stroke-width:0.93750006"
         inkscape:connector-curvature="0" />
      <text
         id="text957"
         y="349.77829"
         x="241.3777"
         font-size="95.019"
         style="font-size:59.62728119px;font-family:Arial, Arial_MSFontService, sans-serif;fill:#999999;fill-opacity:0;stroke-width:0.93750006">A</text>
      <path
         id="path959"
         d="m 291.80602,278.82159 9.11362,-2.22584 10.10198,41.3624 25.65844,-6.26652 1.88323,7.71171 -34.77208,8.49237 z"
         style="fill:#999999;fill-rule:evenodd;stroke-width:0.93750006"
         inkscape:connector-curvature="0" />
      <text
         id="text961"
         y="321.48291"
         x="291.806"
         font-size="81.7485"
         style="font-size:51.29964447px;font-family:Arial, Arial_MSFontService, sans-serif;fill:#999999;fill-opacity:0;stroke-width:0.93750006">L</text>
      <path
         id="path963"
         d="m 349.07316,267.97473 9.37342,-0.38781 2.0878,50.4735 -9.37405,0.3872 z"
         style="fill:#999999;fill-rule:evenodd;stroke-width:0.93750006"
         inkscape:connector-curvature="0" />
      <text
         id="text965"
         y="312.09006"
         x="349.07315"
         font-size="81.049"
         style="font-size:50.86069489px;font-family:Arial, Arial_MSFontService, sans-serif;fill:#999999;fill-opacity:0;stroke-width:0.93750006">I</text>
      <path
         id="path967"
         d="m 397.55551,276.64469 -6.90283,33.94562 12.02348,2.44422 c 3.62713,0.73798 6.96558,0.69156 10.00283,-0.13805 3.04352,-0.83023 5.56619,-2.37897 7.5743,-4.64687 2.00809,-2.26725 3.35728,-5.09866 4.04756,-8.49298 0.69028,-3.39431 0.55222,-6.52757 -0.4079,-9.39852 -0.96639,-2.87158 -2.68582,-5.28317 -5.15829,-7.2348 -2.47247,-1.95161 -5.52854,-3.2964 -9.15567,-4.03438 z m -7.61193,-9.64827 21.63724,4.39962 c 5.2838,1.07371 9.76436,3.05293 13.44795,5.93769 3.68362,2.88474 6.2816,6.43092 7.78138,10.63913 1.49981,4.20823 1.75082,8.76409 0.75304,13.66699 -0.99777,4.90353 -3.00586,8.9994 -6.03056,12.28703 -3.0247,3.28828 -6.79616,5.54047 -11.31436,6.75787 -4.51823,1.2168 -9.41923,1.28832 -14.70304,0.21525 L 379.878,316.50038 Z"
         style="fill:#999999;fill-rule:evenodd;stroke-width:0.93750006"
         inkscape:connector-curvature="0" />
      <text
         id="text969"
         y="314.82236"
         x="379.87796"
         font-size="87.0997"
         style="font-size:54.65768814px;font-family:Arial, Arial_MSFontService, sans-serif;fill:#999999;fill-opacity:0;stroke-width:0.93750006">D</text>
      <path
         id="path971"
         d="m 477.9484,303.99685 -18.74433,15.01806 16.73624,8.94794 z m 0.41417,-10.41699 8.14535,4.35505 -3.70244,55.30109 -8.65364,-4.62677 1.05425,-12.69181 -22.27732,-11.90799 -9.90242,7.96272 -8.52814,-4.55901 z"
         style="fill:#999999;fill-rule:evenodd;stroke-width:0.93750006"
         inkscape:connector-curvature="0" />
      <text
         id="text973"
         y="345.77899"
         x="434.4982"
         font-size="95.0646"
         style="font-size:59.65589905px;font-family:Arial, Arial_MSFontService, sans-serif;fill:#999999;fill-opacity:0;stroke-width:0.93750006">A</text>
      <path
         id="path975"
         d="m 527.44798,334.39943 -23.501,25.45137 9.0176,8.3223 c 2.72349,2.51263 5.59757,4.20257 8.62854,5.06856 3.03098,0.86662 5.99291,0.85031 8.88583,-0.0483 2.89292,-0.89862 5.50971,-2.62057 7.86294,-5.16521 2.34697,-2.54526 3.85305,-5.2951 4.51824,-8.24951 0.66517,-2.95503 0.44554,-5.90818 -0.65892,-8.86009 -1.10445,-2.9519 -3.01842,-5.68418 -5.7419,-8.19744 z m -1.51236,-12.19667 16.22794,14.97977 c 3.95971,3.65474 6.76477,7.67094 8.42145,12.04795 1.65669,4.37702 2.0332,8.75405 1.13584,13.13044 -0.89737,4.37702 -3.04353,8.40324 -6.4322,12.07995 -3.39493,3.67608 -7.24169,6.13599 -11.52772,7.37976 -4.29231,1.24376 -8.68502,1.2149 -13.18441,-0.0867 -4.49312,-1.30149 -8.72267,-3.77961 -12.68238,-7.43497 l -16.22166,-14.97915 z"
         style="fill:#999999;fill-rule:evenodd;stroke-width:0.93750006"
         inkscape:connector-curvature="0" />
      <text
         id="text977"
         y="375.16623"
         x="491.67255"
         font-size="96.4572"
         style="font-size:60.52980423px;font-family:Arial, Arial_MSFontService, sans-serif;fill:#999999;fill-opacity:0;stroke-width:0.93750006">D</text>
      <path
         id="path979"
         d="m 578.59796,374.71573 21.46153,29.98967 -6.4008,4.57783 -15.99574,-22.36016 -10.68686,7.64333 14.19473,19.83622 -6.2753,4.49374 -14.19473,-19.83685 -11.3269,8.10518 16.58561,23.18221 -6.39452,4.57721 -22.05142,-30.8111 z"
         style="fill:#999999;fill-rule:evenodd;stroke-width:0.93750006"
         inkscape:connector-curvature="0" />
      <text
         id="text981"
         y="427.39807"
         x="537.51355"
         font-size="95.9447"
         style="font-size:60.20819092px;font-family:Arial, Arial_MSFontService, sans-serif;fill:#999999;fill-opacity:0;stroke-width:0.93750006">E</text>
    </g>
    <g
       id="g1929"
       transform="translate(-0.54070889)"
       inkscape:export-filename="C:\Users\leila\OneDrive\Área de Trabalho\SeloQualidadeMapGas.png"
       inkscape:export-xdpi="1200"
       inkscape:export-ydpi="1200">
      <path
         id="path983"
         d="m 184.79016,616.52569 c 1.41383,3.88879 2.02504,7.68473 1.83552,11.38841 -0.1895,3.70305 -1.17033,7.13126 -2.94248,10.28333 l -7.42933,-3.74949 c 2.45929,-4.78429 2.77682,-9.68592 0.95261,-14.70491 -1.18353,-3.25563 -2.95569,-5.91321 -5.31644,-7.97278 -2.36141,-2.06018 -5.07109,-3.3535 -8.12904,-3.88001 -3.05796,-0.5265 -6.19185,-0.20645 -9.40228,0.96013 -3.21045,1.16719 -5.81909,2.93432 -7.82529,5.30137 -2.00623,2.36704 -3.25312,5.09806 -3.74072,8.19302 -0.48758,3.09498 -0.13994,6.27029 1.04358,9.52591 1.82423,5.01961 5.23674,8.56518 10.23879,10.6379 l -3.3554,7.66904 c -3.3824,-1.27889 -6.33932,-3.28825 -8.87077,-6.02805 -2.53147,-2.74043 -4.50442,-6.05441 -5.91762,-9.94323 -1.74201,-4.79306 -2.26413,-9.50456 -1.56631,-14.13448 0.69719,-4.63054 2.50134,-8.71575 5.41245,-12.25628 2.91048,-3.54053 6.69448,-6.15734 11.35202,-7.84978 4.65752,-1.69308 9.24226,-2.10536 13.75546,-1.23749 4.5132,0.8685 8.52311,2.85338 12.031,5.95526 3.5079,3.10188 6.13286,7.04906 7.87425,11.84213 z"
         style="fill:#8c8c8c;fill-rule:evenodd;stroke-width:0.93750006"
         inkscape:connector-curvature="0" />
      <text
         id="text985"
         y="643.69147"
         x="134.06564"
         font-size="82.6901"
         style="font-size:51.89053345px;font-family:Arial, Arial_MSFontService, sans-serif;fill:#000000;fill-opacity:0;stroke-width:0.93750006">C</text>
      <path
         id="path987"
         d="m 194.09267,643.00682 22.61054,29.13184 -6.21443,4.82319 -16.85797,-21.7207 -10.37558,8.0531 14.95529,19.26894 -6.10022,4.73471 -14.9553,-19.26956 -11.00311,8.54005 17.47796,22.51892 -6.21379,4.82256 -23.22991,-29.93003 z"
         style="fill:#8c8c8c;fill-rule:evenodd;stroke-width:0.93750006"
         inkscape:connector-curvature="0" />
      <text
         id="text989"
         y="696.29724"
         x="154.18617"
         font-size="97.0524"
         style="font-size:60.90330887px;font-family:Arial, Arial_MSFontService, sans-serif;fill:#000000;fill-opacity:0;stroke-width:0.93750006">E</text>
      <path
         id="path991"
         d="m 226.79578,693.3655 -11.81451,16.30323 8.88206,6.43657 c 3.31148,2.39968 6.33931,3.50978 9.08413,3.3303 2.74418,-0.1801 5.06228,-1.57509 6.95365,-4.185 1.89138,-2.61052 2.48817,-5.23736 1.79035,-7.8824 -0.69719,-2.64441 -2.70215,-5.16645 -6.01362,-7.56612 z m -2.93872,-11.93313 16.82973,12.19606 c 3.5449,2.56911 6.20879,5.39047 7.99159,8.46475 1.78283,3.07427 2.58479,6.21004 2.40657,9.40856 -0.17883,3.19789 -1.35482,6.29663 -3.52858,9.29623 -2.23026,3.07741 -4.89976,5.1834 -8.00918,6.31673 -3.10879,1.13393 -6.46105,1.22996 -10.05616,0.28802 l -0.33134,20.25795 -8.18111,-5.92891 0.32443,-18.0346 c -0.37903,-0.21524 -0.9187,-0.5767 -1.62028,-1.085 l -9.23285,-6.69073 -8.63859,11.92119 -7.59625,-5.50531 z"
         style="fill:#8c8c8c;fill-rule:evenodd;stroke-width:0.93750006"
         inkscape:connector-curvature="0" />
      <text
         id="text993"
         y="739.38171"
         x="194.21509"
         font-size="105.537"
         style="font-size:66.2276535px;font-family:Arial, Arial_MSFontService, sans-serif;fill:#000000;fill-opacity:0;stroke-width:0.93750006">R</text>
      <path
         id="path995"
         d="m 262.25248,710.09481 39.87202,15.74097 -2.91488,7.38416 -15.57279,-6.14855 -15.63492,39.60339 -8.72644,-3.44448 15.63492,-39.60343 -15.57278,-6.1479 z"
         style="fill:#8c8c8c;fill-rule:evenodd;stroke-width:0.93750006"
         inkscape:connector-curvature="0" />
      <text
         id="text997"
         y="759.60254"
         x="259.27545"
         font-size="90.163"
         style="font-size:56.58000183px;font-family:Arial, Arial_MSFontService, sans-serif;fill:#000000;fill-opacity:0;stroke-width:0.93750006">T</text>
      <path
         id="path999"
         d="m 313.41565,728.77388 9.20209,1.82674 -9.8359,49.54976 -9.20147,-1.82669 z"
         style="fill:#8c8c8c;fill-rule:evenodd;stroke-width:0.93750006"
         inkscape:connector-curvature="0" />
      <text
         id="text1001"
         y="773.72821"
         x="303.58032"
         font-size="81.8702"
         style="font-size:51.37601852px;font-family:Arial, Arial_MSFontService, sans-serif;fill:#000000;fill-opacity:0;stroke-width:0.93750006">I</text>
      <path
         id="path1003"
         d="m 340.59712,734.68395 36.87053,0.68526 -0.14622,7.86485 -27.49021,-0.51081 -0.28553,15.36887 24.38771,0.45304 -0.14747,7.93699 -24.38833,-0.45304 -0.35895,19.33668 -9.38032,-0.17386 z"
         style="fill:#8c8c8c;fill-rule:evenodd;stroke-width:0.93750006"
         inkscape:connector-curvature="0" />
      <text
         id="text1005"
         y="779.03082"
         x="339.65833"
         font-size="80.764"
         style="font-size:50.6818428px;font-family:Arial, Arial_MSFontService, sans-serif;fill:#000000;fill-opacity:0;stroke-width:0.93750006">F</text>
      <path
         id="path1007"
         d="m 391.33042,734.16311 9.26861,-1.46402 7.88179,49.8974 -9.26234,1.46399 z"
         style="fill:#8c8c8c;fill-rule:evenodd;stroke-width:0.93750006"
         inkscape:connector-curvature="0" />
      <text
         id="text1009"
         y="777.64026"
         x="391.33041"
         font-size="81.8467"
         style="font-size:51.3612709px;font-family:Arial, Arial_MSFontService, sans-serif;fill:#000000;fill-opacity:0;stroke-width:0.93750006">I</text>
      <path
         id="path1011"
         d="m 440.12088,722.18796 c 3.8907,-1.4157 7.68725,-2.02944 11.38967,-1.84244 3.70243,0.18763 7.12875,1.16596 10.28522,2.93621 l -3.74635,7.43122 c -4.78179,-2.45552 -9.68907,-2.76993 -14.70302,-0.94256 -3.2569,1.18541 -5.91134,2.95881 -7.96965,5.32147 -2.0583,2.36202 -3.351,5.07232 -3.87813,8.1309 -0.52084,3.05861 -0.2008,6.19247 0.96639,9.40233 1.17348,3.20912 2.93685,5.8165 5.30892,7.82149 2.36578,2.00498 5.10181,3.25 8.19553,3.73567 3.09372,0.48578 6.26903,0.13558 9.52591,-1.04923 5.01397,-1.82734 8.55951,-5.24305 10.63037,-10.24633 l 7.66842,3.35109 c -1.27389,3.38298 -3.28199,6.34112 -6.01802,8.87452 -2.7423,2.53331 -6.05567,4.50814 -9.94009,5.92386 -4.79432,1.74458 -9.50708,2.26984 -14.13824,1.57507 -4.62489,-0.69404 -8.7164,-2.49567 -12.25566,-5.40425 -3.54556,-2.90857 -6.16235,-6.69068 -7.85669,-11.34762 -1.69433,-4.65564 -2.11476,-9.241 -1.24878,-13.75423 0.86599,-4.51382 2.84898,-8.52563 5.949,-12.03477 3.09999,-3.50977 7.04714,-6.13724 11.8352,-7.8824 z"
         style="fill:#8c8c8c;fill-rule:evenodd;stroke-width:0.93750006"
         inkscape:connector-curvature="0" />
      <text
         id="text1013"
         y="766.33344"
         x="421.8974"
         font-size="83.8134"
         style="font-size:52.5954361px;font-family:Arial, Arial_MSFontService, sans-serif;fill:#000000;fill-opacity:0;stroke-width:0.93750006">C</text>
      <path
         id="path1015"
         d="m 490.4237,708.69417 4.94494,23.50728 15.53765,-10.9002 z m -9.10546,-5.06919 7.56174,-5.30514 47.67973,28.25893 -8.03866,5.63648 -10.85,-6.67001 -20.67712,14.50536 2.64191,12.43078 -7.91943,5.55359 z"
         style="fill:#8c8c8c;fill-rule:evenodd;stroke-width:0.93750006"
         inkscape:connector-curvature="0" />
      <text
         id="text1017"
         y="750.5705"
         x="481.3183"
         font-size="95.1588"
         style="font-size:59.71500778px;font-family:Arial, Arial_MSFontService, sans-serif;fill:#000000;fill-opacity:0;stroke-width:0.93750006">A</text>
      <path
         id="path1019"
         d="m 524.83117,679.64768 27.38542,21.21115 7.51153,-9.6991 c 2.27167,-2.92931 3.70244,-5.94021 4.30486,-9.03455 0.60244,-3.09435 0.33259,-6.04312 -0.81577,-8.84692 -1.14212,-2.80381 -3.08746,-5.26624 -5.8235,-7.38729 -2.73603,-2.12105 -5.61011,-3.38553 -8.60972,-3.79279 -2.99958,-0.40727 -5.92386,0.0671 -8.76659,1.42261 -2.84898,1.35609 -5.40302,3.49848 -7.67469,6.42716 z m -12.02347,2.55593 13.52328,-17.45851 c 3.3008,-4.26031 7.0597,-7.40422 11.27671,-9.43178 4.21699,-2.02755 8.54696,-2.78309 12.9836,-2.26663 4.43663,0.51645 8.63481,2.30618 12.58825,5.37039 3.95972,3.06361 6.73967,6.67943 8.35242,10.84748 1.60648,4.16744 1.9579,8.54697 1.04799,13.13735 -0.90365,4.59101 -3.01214,9.01635 -6.30669,13.27602 l -13.52327,17.45853 z"
         style="fill:#8c8c8c;fill-rule:evenodd;stroke-width:0.93750006"
         inkscape:connector-curvature="0" />
      <text
         id="text1021"
         y="705.60547"
         x="512.80768"
         font-size="96.0069"
         style="font-size:60.24721909px;font-family:Arial, Arial_MSFontService, sans-serif;fill:#000000;fill-opacity:0;stroke-width:0.93750006">D</text>
      <path
         id="path1023"
         d="m 563.36153,620.52807 17.92226,15.99637 6.04312,-17.99129 z m -10.3417,1.32096 2.94312,-8.75593 55.14735,-5.52353 -3.1251,9.30314 -12.68867,1.06429 -8.05121,23.94216 9.49453,8.44404 -3.08116,9.16697 z"
         style="fill:#8c8c8c;fill-rule:evenodd;stroke-width:0.93750006"
         inkscape:connector-curvature="0" />
      <text
         id="text1025"
         y="652.99957"
         x="553.0199"
         font-size="82.7372"
         style="font-size:51.92008591px;font-family:Arial, Arial_MSFontService, sans-serif;fill:#000000;fill-opacity:0;stroke-width:0.93750006">A</text>
    </g>
    <circle
       style="opacity:1;fill:#999999;fill-opacity:1;fill-rule:evenodd;stroke:none;stroke-width:1.24968743;stroke-miterlimit:4;stroke-dasharray:none;stroke-opacity:1;paint-order:markers stroke fill"
       id="path1935"
       cx="606.05536"
       cy="526.18109"
       r="8.4375"
       inkscape:export-filename="C:\Users\leila\OneDrive\Área de Trabalho\SeloQualidadeMapGas.png"
       inkscape:export-xdpi="1200"
       inkscape:export-ydpi="1200" />
    <circle
       style="opacity:1;fill:#999999;fill-opacity:1;fill-rule:evenodd;stroke:none;stroke-width:1.24968743;stroke-miterlimit:4;stroke-dasharray:none;stroke-opacity:1;paint-order:markers stroke fill"
       id="path1935-6"
       cx="138.03912"
       cy="526.18109"
       r="8.4375"
       inkscape:export-filename="C:\Users\leila\OneDrive\Área de Trabalho\SeloQualidadeMapGas.png"
       inkscape:export-xdpi="1200"
       inkscape:export-ydpi="1200" />
  </g>
</svg>
